<svg version="1.2" baseProfile="tiny-ps" xmlns="http://www.w3.org/2000/svg" viewBox="0 0 1810 896" width="1810" height="896">
	<title>SAP_2011_logo-svg</title>
	<defs>
		<linearGradient id="grd1" gradientUnits="userSpaceOnUse"  x1="904.159" y1="0.775" x2="904.159" y2="895.101">
			<stop offset="0" stop-color="#00b8f1"  />
			<stop offset="0.22" stop-color="#06a5e5"  />
			<stop offset="0.22" stop-color="#06a5e5"  />
			<stop offset="0.794" stop-color="#1870c5"  />
			<stop offset="1" stop-color="#1d61bc"  />
		</linearGradient>
	</defs>
	<style>
		tspan { white-space:pre }
		.shp0 { fill: url(#grd1) } 
		.shp1 { fill: #ffffff } 
	</style>
	<path id="path3060" class="shp0" d="M0.3 0.29L0.3 895.07L914.48 895.07L1809.29 0.39L1809.29 0.39L0.3 0.39L0.3 0.29Z" />
	<path id="path3100" fill-rule="evenodd" class="shp1" d="M1073.83 168.75C1244.05 168.75 1324 229.37 1324 361.53C1324 480.27 1241.67 551.02 1102.65 551.02L1045.08 551.02L1045.08 722.06L781.25 722.06L755.14 640.26C727.23 649.45 695.7 654.49 662.27 654.49C628.02 654.49 595.66 649.09 567.25 639.48L540.09 722.06L378.39 722.06L396.2 674.19L389.68 679.89C349.36 712.29 298.91 730.11 236.44 731.32L227.15 731.32C155.36 731.32 85.02 711.54 25.6 677.72L80.59 568.46C140.19 603.68 177.61 611.54 228.06 610.53C254.23 609.94 273.15 605.21 285.47 592.42C292.94 584.76 296.79 575.07 297.19 564.74C297.66 536.35 257.28 523.04 207.81 507.79C167.72 495.21 122.32 478.43 86.74 452.36C44.69 421.4 24.6 382.68 25.6 328.12C26.27 288.3 41 252.52 68.22 224.23C107.39 183.8 170.54 159.1 246.32 159.1L246.72 159.1C311.68 159.24 391.09 177.62 448.39 206.89L386.53 314.63C323.73 284.27 292.09 281.37 256.23 279.55C203.02 276.71 176.04 295.73 175.63 316.24C175.17 341.32 226.15 363.96 274.04 379.38C346.7 402.4 439.12 433.29 453.17 522.49L586.07 168.57L740.25 168.57L895.8 591.89L895.8 168.57L1073.85 168.57M662.29 530.93C682.56 530.93 701.52 527.27 718.18 521.3L662.88 342.73L661.67 342.73L605.19 520.82C622.01 527.15 641.48 530.93 662.23 530.93L662.29 530.93ZM1084.25 428.43C1136.6 428.43 1178.27 411.11 1178.27 355.83C1178.27 302.3 1136.6 285.05 1084.25 285.05L1045.04 285.05L1045.04 428.43L1084.25 428.43Z" />
</svg>